<svg width="500" height="500" viewBox="0 0 500 500" fill="none" xmlns="http://www.w3.org/2000/svg">
<rect width="500" height="500" fill="#1E2A45"/>
<path d="M403.881 418.96C399.657 418.96 396.009 418.288 392.937 416.944C389.929 415.6 387.465 413.776 385.545 411.472C383.689 409.168 382.313 406.576 381.417 403.696C380.585 400.752 380.169 397.712 380.169 394.576C380.169 391.568 380.585 388.592 381.417 385.648C382.313 382.704 383.657 380.048 385.449 377.68C387.241 375.248 389.609 373.328 392.553 371.92C395.497 370.448 399.017 369.712 403.113 369.712C406.761 369.712 409.961 370.352 412.713 371.632C415.529 372.848 417.865 374.576 419.721 376.816C421.577 378.992 422.953 381.584 423.849 384.592C424.809 387.6 425.289 390.832 425.289 394.288C425.289 394.864 425.257 395.536 425.193 396.304C425.193 397.072 425.129 397.936 425.001 398.896H393.321C393.705 401.84 394.953 404.048 397.065 405.52C399.177 406.928 401.705 407.632 404.649 407.632C407.017 407.632 409.385 407.216 411.753 406.384C414.121 405.552 416.201 404.368 417.993 402.832L424.041 412.048C421.673 413.712 419.465 415.056 417.417 416.08C415.433 417.104 413.353 417.84 411.177 418.288C409.065 418.736 406.633 418.96 403.881 418.96ZM412.329 392.272C412.457 391.76 412.553 391.248 412.617 390.736C412.745 390.224 412.809 389.744 412.809 389.296C412.809 388.016 412.553 386.864 412.041 385.84C411.593 384.752 410.953 383.824 410.121 383.056C409.289 382.288 408.297 381.712 407.145 381.328C405.993 380.88 404.713 380.656 403.305 380.656C401.065 380.656 399.209 381.104 397.737 382C396.329 382.832 395.241 383.888 394.473 385.168C393.769 386.448 393.321 387.76 393.129 389.104H416.745L412.329 392.272Z" fill="#FF008F"/>
<path d="M305.802 418V370.672H318.954V383.056L316.074 385.744C316.522 382.48 317.29 379.792 318.378 377.68C319.53 375.568 320.874 373.936 322.41 372.784C323.946 371.632 325.546 370.832 327.21 370.384C328.874 369.936 330.506 369.712 332.106 369.712C334.41 369.712 336.682 370.16 338.922 371.056C341.226 371.888 343.242 373.424 344.97 375.664C346.698 377.904 347.914 381.072 348.618 385.168L340.65 388.432C341.61 383.568 343.082 379.792 345.066 377.104C347.05 374.352 349.258 372.432 351.69 371.344C354.186 370.256 356.682 369.712 359.178 369.712C363.274 369.712 366.602 370.608 369.162 372.4C371.722 374.128 373.61 376.4 374.826 379.216C376.042 381.968 376.65 384.848 376.65 387.856V418H363.402V391.024C363.402 388.784 363.114 386.928 362.538 385.456C361.962 383.984 361.13 382.896 360.042 382.192C358.954 381.488 357.61 381.136 356.01 381.136C354.154 381.136 352.618 381.616 351.402 382.576C350.186 383.536 349.258 385.008 348.618 386.992C348.042 388.976 347.754 391.504 347.754 394.576V418H334.602V390.928C334.602 387.664 333.994 385.232 332.778 383.632C331.562 381.968 329.834 381.136 327.594 381.136C325.674 381.136 324.074 381.648 322.794 382.672C321.514 383.632 320.554 385.104 319.914 387.088C319.274 389.008 318.954 391.504 318.954 394.576V418H305.802Z" fill="#FF008F"/>
<path d="M286.58 418V404.848H300.404V418H286.58Z" fill="#F0F2F9"/>
<path d="M263.667 418.96C260.083 418.96 256.947 418.448 254.259 417.424C251.571 416.4 249.331 415.152 247.539 413.68C245.747 412.144 244.275 410.736 243.123 409.456L252.147 401.584C253.235 403.184 254.707 404.72 256.563 406.192C258.483 407.664 260.883 408.4 263.763 408.4C265.875 408.4 267.507 407.984 268.659 407.152C269.875 406.32 270.483 405.36 270.483 404.272C270.483 403.248 270.099 402.448 269.331 401.872C268.563 401.232 267.539 400.688 266.259 400.24C264.979 399.792 263.539 399.344 261.939 398.896C260.147 398.448 258.291 397.904 256.371 397.264C254.451 396.56 252.659 395.664 250.995 394.576C249.331 393.488 247.987 392.112 246.963 390.448C245.939 388.72 245.427 386.576 245.427 384.016C245.427 379.728 247.091 376.272 250.419 373.648C253.811 371.024 258.227 369.712 263.667 369.712C267.507 369.712 270.995 370.448 274.131 371.92C277.267 373.392 279.763 375.536 281.619 378.352L273.459 384.784C272.307 383.12 270.835 381.84 269.043 380.944C267.251 379.984 265.363 379.504 263.379 379.504C261.715 379.504 260.339 379.824 259.251 380.464C258.227 381.04 257.715 381.808 257.715 382.768C257.715 383.472 257.971 384.08 258.483 384.592C258.995 385.04 259.827 385.456 260.979 385.84C262.131 386.224 263.699 386.672 265.683 387.184C267.539 387.632 269.491 388.176 271.539 388.816C273.587 389.456 275.507 390.352 277.299 391.504C279.155 392.592 280.627 394.064 281.715 395.92C282.867 397.712 283.443 399.984 283.443 402.736C283.443 405.936 282.611 408.784 280.947 411.28C279.347 413.712 277.043 415.6 274.035 416.944C271.091 418.288 267.635 418.96 263.667 418.96Z" fill="#F0F2F9"/>
<path d="M229.074 418L216.114 397.264L209.394 405.04V388.624L226.194 370.672H242.994L225.81 388.432L244.818 418H229.074ZM197.202 418C197.202 418 204.5 387.5 190 362L197.202 355.5C219.5 368.5 210.354 418 210.354 418H197.202Z" fill="#F0F2F9"/>
<path d="M171.475 418.96C167.251 418.96 163.603 418.288 160.531 416.944C157.523 415.6 155.059 413.776 153.139 411.472C151.283 409.168 149.907 406.576 149.011 403.696C148.179 400.752 147.763 397.712 147.763 394.576C147.763 391.568 148.179 388.592 149.011 385.648C149.907 382.704 151.251 380.048 153.043 377.68C154.835 375.248 157.203 373.328 160.147 371.92C163.091 370.448 166.611 369.712 170.707 369.712C174.355 369.712 177.555 370.352 180.307 371.632C183.123 372.848 185.459 374.576 187.315 376.816C189.171 378.992 190.547 381.584 191.443 384.592C192.403 387.6 192.883 390.832 192.883 394.288C192.883 394.864 192.851 395.536 192.787 396.304C192.787 397.072 192.723 397.936 192.595 398.896H160.915C161.299 401.84 162.547 404.048 164.659 405.52C166.771 406.928 169.299 407.632 172.243 407.632C174.611 407.632 176.979 407.216 179.347 406.384C181.715 405.552 183.795 404.368 185.587 402.832L191.635 412.048C189.267 413.712 187.059 415.056 185.011 416.08C183.027 417.104 180.947 417.84 178.771 418.288C176.659 418.736 174.227 418.96 171.475 418.96ZM179.923 392.272C180.051 391.76 180.147 391.248 180.211 390.736C180.339 390.224 180.403 389.744 180.403 389.296C180.403 388.016 180.147 386.864 179.635 385.84C179.187 384.752 178.547 383.824 177.715 383.056C176.883 382.288 175.891 381.712 174.739 381.328C173.587 380.88 172.307 380.656 170.899 380.656C168.659 380.656 166.803 381.104 165.331 382C163.923 382.832 162.835 383.888 162.067 385.168C161.363 386.448 160.915 387.76 160.723 389.104H184.339L179.923 392.272Z" fill="#F0F2F9"/>
<path d="M130.488 418V370.672H143.64V418H130.488ZM130.296 363.76V351.088H144.024V363.76H130.296Z" fill="#F0F2F9"/>
<path d="M112.599 418L99.6393 397.264L92.9193 405.04V388.624L109.719 370.672H126.519L109.335 388.432L128.343 418H112.599ZM80.7273 418V351.088H93.8793V418H80.7273Z" fill="#F0F2F9"/>
<path d="M328.119 200.537C339.038 182.4 333.173 158.831 315.02 147.894L238.324 101.687C220.171 90.7502 196.603 96.5868 185.684 114.724L141.2 188.613C135.285 198.437 138.462 211.203 148.295 217.127C158.128 223.051 170.894 219.89 176.808 210.066C170.894 219.89 174.07 232.656 183.903 238.581C193.736 244.505 206.502 241.343 212.417 231.519C206.502 241.343 209.679 254.11 219.512 260.034C229.345 265.958 242.111 262.797 248.025 252.973L199.559 333.475C193.645 343.299 196.821 356.066 206.654 361.99C216.488 367.914 229.253 364.752 235.168 354.928L301.483 244.779C301.876 244.126 302.229 243.461 302.542 242.785C303.133 241.959 303.696 241.103 304.229 240.218L328.119 200.537Z" fill="#FF008F"/>
</svg>
