<svg width="500" height="500" viewBox="0 0 500 500" fill="none" xmlns="http://www.w3.org/2000/svg">
<path d="M125.419 145.441C90.1155 150.407 65.5182 183.081 70.4798 218.42L91.4422 367.722C96.4038 403.061 129.046 427.682 164.35 422.716L308.177 402.482C327.3 399.792 340.624 382.094 337.936 362.952C335.249 343.81 317.568 330.473 298.445 333.163C317.568 330.473 330.891 312.775 328.204 293.633C325.516 274.491 307.835 261.154 288.712 263.845C307.835 261.154 321.159 243.456 318.471 224.314C315.784 205.172 298.103 191.836 278.98 194.526L435.681 172.481C454.804 169.791 468.128 152.093 465.44 132.951C462.753 113.809 445.072 100.472 425.949 103.163L211.539 133.326C210.268 133.504 209.023 133.749 207.806 134.057C206.099 134.16 204.383 134.332 202.66 134.575L125.419 145.441Z" fill="#00FFDC"/>
<path d="M107.419 172.441C72.1155 177.407 47.5182 210.081 52.4798 245.42L73.4422 394.722C78.4038 430.061 111.046 454.682 146.35 449.716L290.177 429.482C309.3 426.792 322.624 409.094 319.936 389.952C317.249 370.81 299.568 357.473 280.445 360.163C299.568 357.473 312.891 339.775 310.204 320.633C307.516 301.491 289.835 288.154 270.712 290.845C289.835 288.154 303.159 270.456 300.471 251.314C297.784 232.172 280.103 218.836 260.98 221.526L417.681 199.481C436.804 196.791 450.128 179.093 447.44 159.951C444.753 140.809 427.072 127.472 407.949 130.163L193.539 160.326C192.268 160.504 191.023 160.749 189.806 161.057C188.099 161.16 186.383 161.332 184.66 161.575L107.419 172.441Z" fill="#FF008F"/>
</svg>
