<svg width="500" height="500" viewBox="0 0 500 500" fill="none" xmlns="http://www.w3.org/2000/svg">
<rect width="500" height="500" fill="#1E2A45"/>
<path d="M445.881 274.872C441.657 274.872 438.009 274.2 434.937 272.856C431.929 271.512 429.465 269.688 427.545 267.384C425.689 265.08 424.313 262.488 423.417 259.608C422.585 256.664 422.169 253.624 422.169 250.488C422.169 247.48 422.585 244.504 423.417 241.56C424.313 238.616 425.657 235.96 427.449 233.592C429.241 231.16 431.609 229.24 434.553 227.832C437.497 226.36 441.017 225.624 445.113 225.624C448.761 225.624 451.961 226.264 454.713 227.544C457.529 228.76 459.865 230.488 461.721 232.728C463.577 234.904 464.953 237.496 465.849 240.504C466.809 243.512 467.289 246.744 467.289 250.2C467.289 250.776 467.257 251.448 467.193 252.216C467.193 252.984 467.129 253.848 467.001 254.808H435.321C435.705 257.752 436.953 259.96 439.065 261.432C441.177 262.84 443.705 263.544 446.649 263.544C449.017 263.544 451.385 263.128 453.753 262.296C456.121 261.464 458.201 260.28 459.993 258.744L466.041 267.96C463.673 269.624 461.465 270.968 459.417 271.992C457.433 273.016 455.353 273.752 453.177 274.2C451.065 274.648 448.633 274.872 445.881 274.872ZM454.329 248.184C454.457 247.672 454.553 247.16 454.617 246.648C454.745 246.136 454.809 245.656 454.809 245.208C454.809 243.928 454.553 242.776 454.041 241.752C453.593 240.664 452.953 239.736 452.121 238.968C451.289 238.2 450.297 237.624 449.145 237.24C447.993 236.792 446.713 236.568 445.305 236.568C443.065 236.568 441.209 237.016 439.737 237.912C438.329 238.744 437.241 239.8 436.473 241.08C435.769 242.36 435.321 243.672 435.129 245.016H458.745L454.329 248.184Z" fill="#00FFDC"/>
<path d="M347.802 273.912V226.584H360.954V238.968L358.074 241.656C358.522 238.392 359.29 235.704 360.378 233.592C361.53 231.48 362.874 229.848 364.41 228.696C365.946 227.544 367.546 226.744 369.21 226.296C370.874 225.848 372.506 225.624 374.106 225.624C376.41 225.624 378.682 226.072 380.922 226.968C383.226 227.8 385.242 229.336 386.97 231.576C388.698 233.816 389.914 236.984 390.618 241.08L382.65 244.344C383.61 239.48 385.082 235.704 387.066 233.016C389.05 230.264 391.258 228.344 393.69 227.256C396.186 226.168 398.682 225.624 401.178 225.624C405.274 225.624 408.602 226.52 411.162 228.312C413.722 230.04 415.61 232.312 416.826 235.128C418.042 237.88 418.65 240.76 418.65 243.768V273.912H405.402V246.936C405.402 244.696 405.114 242.84 404.538 241.368C403.962 239.896 403.13 238.808 402.042 238.104C400.954 237.4 399.61 237.048 398.01 237.048C396.154 237.048 394.618 237.528 393.402 238.488C392.186 239.448 391.258 240.92 390.618 242.904C390.042 244.888 389.754 247.416 389.754 250.488V273.912H376.602V246.84C376.602 243.576 375.994 241.144 374.778 239.544C373.562 237.88 371.834 237.048 369.594 237.048C367.674 237.048 366.074 237.56 364.794 238.584C363.514 239.544 362.554 241.016 361.914 243C361.274 244.92 360.954 247.416 360.954 250.488V273.912H347.802Z" fill="#00FFDC"/>
<path d="M328.58 273.912V260.76H342.404V273.912H328.58Z" fill="#F0F2F9"/>
<path d="M305.667 274.872C302.083 274.872 298.947 274.36 296.259 273.336C293.571 272.312 291.331 271.064 289.539 269.592C287.747 268.056 286.275 266.648 285.123 265.368L294.147 257.496C295.235 259.096 296.707 260.632 298.563 262.104C300.483 263.576 302.883 264.312 305.763 264.312C307.875 264.312 309.507 263.896 310.659 263.064C311.875 262.232 312.483 261.272 312.483 260.184C312.483 259.16 312.099 258.36 311.331 257.784C310.563 257.144 309.539 256.6 308.259 256.152C306.979 255.704 305.539 255.256 303.939 254.808C302.147 254.36 300.291 253.816 298.371 253.176C296.451 252.472 294.659 251.576 292.995 250.488C291.331 249.4 289.987 248.024 288.963 246.36C287.939 244.632 287.427 242.488 287.427 239.928C287.427 235.64 289.091 232.184 292.419 229.56C295.811 226.936 300.227 225.624 305.667 225.624C309.507 225.624 312.995 226.36 316.131 227.832C319.267 229.304 321.763 231.448 323.619 234.264L315.459 240.696C314.307 239.032 312.835 237.752 311.043 236.856C309.251 235.896 307.363 235.416 305.379 235.416C303.715 235.416 302.339 235.736 301.251 236.376C300.227 236.952 299.715 237.72 299.715 238.68C299.715 239.384 299.971 239.992 300.483 240.504C300.995 240.952 301.827 241.368 302.979 241.752C304.131 242.136 305.699 242.584 307.683 243.096C309.539 243.544 311.491 244.088 313.539 244.728C315.587 245.368 317.507 246.264 319.299 247.416C321.155 248.504 322.627 249.976 323.715 251.832C324.867 253.624 325.443 255.896 325.443 258.648C325.443 261.848 324.611 264.696 322.947 267.192C321.347 269.624 319.043 271.512 316.035 272.856C313.091 274.2 309.635 274.872 305.667 274.872Z" fill="#F0F2F9"/>
<path d="M271.074 273.912L258.114 253.176L251.394 260.952V244.536L268.194 226.584H284.994L267.81 244.344L286.818 273.912H271.074ZM239.202 273.912V207H252.354V273.912H239.202Z" fill="#F0F2F9"/>
<path d="M213.475 274.872C209.251 274.872 205.603 274.2 202.531 272.856C199.523 271.512 197.059 269.688 195.139 267.384C193.283 265.08 191.907 262.488 191.011 259.608C190.179 256.664 189.763 253.624 189.763 250.488C189.763 247.48 190.179 244.504 191.011 241.56C191.907 238.616 193.251 235.96 195.043 233.592C196.835 231.16 199.203 229.24 202.147 227.832C205.091 226.36 208.611 225.624 212.707 225.624C216.355 225.624 219.555 226.264 222.307 227.544C225.123 228.76 227.459 230.488 229.315 232.728C231.171 234.904 232.547 237.496 233.443 240.504C234.403 243.512 234.883 246.744 234.883 250.2C234.883 250.776 234.851 251.448 234.787 252.216C234.787 252.984 234.723 253.848 234.595 254.808H202.915C203.299 257.752 204.547 259.96 206.659 261.432C208.771 262.84 211.299 263.544 214.243 263.544C216.611 263.544 218.979 263.128 221.347 262.296C223.715 261.464 225.795 260.28 227.587 258.744L233.635 267.96C231.267 269.624 229.059 270.968 227.011 271.992C225.027 273.016 222.947 273.752 220.771 274.2C218.659 274.648 216.227 274.872 213.475 274.872ZM221.923 248.184C222.051 247.672 222.147 247.16 222.211 246.648C222.339 246.136 222.403 245.656 222.403 245.208C222.403 243.928 222.147 242.776 221.635 241.752C221.187 240.664 220.547 239.736 219.715 238.968C218.883 238.2 217.891 237.624 216.739 237.24C215.587 236.792 214.307 236.568 212.899 236.568C210.659 236.568 208.803 237.016 207.331 237.912C205.923 238.744 204.835 239.8 204.067 241.08C203.363 242.36 202.915 243.672 202.723 245.016H226.339L221.923 248.184Z" fill="#F0F2F9"/>
<path d="M172.488 273.912V226.584H185.64V273.912H172.488ZM172.296 219.672V207H186.024V219.672H172.296Z" fill="#F0F2F9"/>
<path d="M154.599 273.912L141.639 253.176L134.919 260.952V244.536L151.719 226.584H168.519L151.335 244.344L170.343 273.912H154.599ZM122.727 273.912L126 226.584L124 211.912L135.879 207V273.912H122.727Z" fill="#F0F2F9"/>
<path d="M43.9425 230.818C35.6203 231.989 29.8219 239.691 30.9915 248.02L35.933 283.213C37.1026 291.543 44.7973 297.347 53.1196 296.176L87.0245 291.407C91.5324 290.772 94.6731 286.601 94.0396 282.089C93.4061 277.577 89.2381 274.433 84.7302 275.067C89.2381 274.433 92.3789 270.261 91.7453 265.749C91.1118 261.237 86.9438 258.094 82.4359 258.728C86.9438 258.094 90.0846 253.922 89.4511 249.41C88.8175 244.898 84.6496 241.754 80.1417 242.388L117.081 237.192C121.589 236.558 124.73 232.386 124.096 227.874C123.463 223.362 119.295 220.218 114.787 220.853L64.2436 227.962C63.944 228.005 63.6505 228.062 63.3638 228.135C62.9614 228.159 62.5568 228.2 62.1507 228.257L43.9425 230.818Z" fill="#00FFDC"/>
</svg>
